<?xml version="1.0" encoding="UTF-8"?>
<svg id="Layer_1" data-name="Layer 1" xmlns="http://www.w3.org/2000/svg" viewBox="0 0 46.5 41">
  <defs>
    <style>
      .cls-1 {
        stroke-linecap: round;
        stroke-linejoin: round;
        stroke-width: 1.5px;
      }

      .cls-1, .cls-2 {
        stroke: #000;
      }

      .cls-2 {
        stroke-miterlimit: 10;
      }
    </style>
  </defs>
  <path class="cls-1" d="m42.61,33.24v5.81H3.89v-5.81c0-1.06.87-1.94,1.94-1.94h34.85c1.06,0,1.94.87,1.94,1.94Z"/>
  <path class="cls-2" d="m13.57,17.75h-3.87v13.55h3.87v-13.55Z"/>
  <path class="cls-2" d="m21.31,17.75h-3.87v13.55h3.87v-13.55Z"/>
  <path class="cls-2" d="m29.06,17.75h-3.87v13.55h3.87v-13.55Z"/>
  <path class="cls-2" d="m36.8,17.75h-3.87v13.55h3.87v-13.55Z"/>
  <path class="cls-2" d="m44.55,40.5H1.95c-.79,0-1.45-.66-1.45-1.45s.66-1.45,1.45-1.45h42.59c.79,0,1.45.66,1.45,1.45s-.66,1.45-1.45,1.45Z"/>
  <path class="cls-2" d="m41.39,7.59L23.97.62c-.39-.15-1.05-.15-1.43,0L5.11,7.59c-.68.27-1.22,1.06-1.22,1.8v6.43c0,1.06.87,1.94,1.94,1.94h34.85c1.06,0,1.94-.87,1.94-1.94v-6.43c0-.74-.54-1.53-1.22-1.8Zm-18.14,5.32c-1.61,0-2.9-1.3-2.9-2.9s1.3-2.9,2.9-2.9,2.9,1.3,2.9,2.9-1.3,2.9-2.9,2.9Z"/>
</svg>