<?xml version="1.0" encoding="utf-8"?>
<!-- Generator: Adobe Illustrator 27.6.1, SVG Export Plug-In . SVG Version: 6.00 Build 0)  -->
<svg version="1.1" id="Layer_1" xmlns="http://www.w3.org/2000/svg" xmlns:xlink="http://www.w3.org/1999/xlink" x="0px" y="0px"
	 viewBox="0 0 40 40" style="enable-background:new 0 0 40 40;" xml:space="preserve">
<g>
	<path d="M34.9,4.1c0.3,0.4-0.2,0.9-0.7,0.8c-0.9-0.3-2-0.4-3-0.4h-6.6c-0.3,0-0.6-0.1-0.8-0.4L21.5,1c-0.3-0.4,0-1,0.5-1h5.5
		C30.6,0,33.3,1.6,34.9,4.1z"/>
	<path d="M36.3,9.1c-0.9-0.6-1.8-1.1-2.9-1.3c-0.7-0.2-1.5-0.3-2.2-0.3h-7.4c-1.2,0-1.2-0.1-1.9-0.9l-2.8-3.7
		C17.8,1.1,16.7,0,13.5,0H8.8C4,0,0,4,0,8.8v22.3C0,36,4,40,8.8,40h22.3c4.9,0,8.8-4,8.8-8.8V16.3C40,13.3,38.5,10.7,36.3,9.1z
		 M24.8,28.7h-9.6c-0.8,0-1.4-0.6-1.4-1.4c0-0.8,0.6-1.4,1.4-1.4h9.6c0.8,0,1.4,0.6,1.4,1.4C26.2,28.1,25.6,28.7,24.8,28.7z"/>
</g>
</svg>
