<?xml version="1.0" encoding="utf-8"?>
<!-- Generator: Adobe Illustrator 27.6.1, SVG Export Plug-In . SVG Version: 6.00 Build 0)  -->
<svg version="1.1" id="Layer_1" xmlns="http://www.w3.org/2000/svg" xmlns:xlink="http://www.w3.org/1999/xlink" x="0px" y="0px"
	 viewBox="0 0 40 40" style="enable-background:new 0 0 40 40;" xml:space="preserve">
<path d="M28.4,0H11.6C4.3,0,0,4.3,0,11.6v16.7C0,35.7,4.3,40,11.6,40h16.7C35.6,40,40,35.7,40,28.4V11.6C40,4.3,35.7,0,28.4,0z
	 M11.3,7c0-0.8,0.7-1.5,1.5-1.5s1.5,0.7,1.5,1.5v7.8c0,0.8-0.7,1.5-1.5,1.5s-1.5-0.7-1.5-1.5V7z M15,28.9c-0.4,0.2-0.7,0.6-0.7,1V33
	c0,0.8-0.7,1.5-1.5,1.5s-1.5-0.7-1.5-1.5v-3.1c0-0.4-0.3-0.8-0.7-1c-1.9-0.8-3.2-2.7-3.2-5c0-3,2.4-5.5,5.4-5.5s5.5,2.4,5.5,5.5
	C18.3,26.1,17,28,15,28.9z M28.7,33c0,0.8-0.7,1.5-1.5,1.5s-1.5-0.7-1.5-1.5v-7.8c0-0.8,0.7-1.5,1.5-1.5s1.5,0.7,1.5,1.5V33z
	 M27.2,21.5c-3,0-5.5-2.4-5.5-5.5c0-2.2,1.3-4.1,3.3-5c0.4-0.2,0.7-0.6,0.7-1V7c0-0.8,0.7-1.5,1.5-1.5s1.5,0.7,1.5,1.5v3.1
	c0,0.4,0.3,0.8,0.7,1c1.9,0.8,3.2,2.7,3.2,5C32.6,19.1,30.2,21.5,27.2,21.5z"/>
</svg>
