<?xml version="1.0" encoding="utf-8"?>
<!-- Generator: Adobe Illustrator 27.6.1, SVG Export Plug-In . SVG Version: 6.00 Build 0)  -->
<svg version="1.1" id="Layer_1" xmlns="http://www.w3.org/2000/svg" xmlns:xlink="http://www.w3.org/1999/xlink" x="0px" y="0px"
	 viewBox="0 0 40 40" style="enable-background:new 0 0 40 40;" xml:space="preserve">
<path d="M28.4,0H11.6C4.3,0,0,4.3,0,11.6v16.8c0,5.6,2.6,9.5,7.1,10.9C8.4,39.8,10,40,11.6,40h16.8c1.7,0,3.2-0.2,4.5-0.7
	C37.4,37.9,40,34,40,28.4V11.6C40,4.3,35.7,0,28.4,0z M37,28.4c0,4.3-1.7,7-5.1,8.1c-1.9-3.8-6.5-6.5-11.9-6.5s-10,2.7-11.9,6.5h0
	c-3.3-1.1-5-3.8-5-8.1V11.6C3,6,6,3,11.6,3h16.8C34,3,37,6,37,11.6V28.4z"/>
<path d="M20,12c-4,0-7.2,3.2-7.2,7.2s3.2,7.2,7.2,7.2s7.2-3.2,7.2-7.2S24,12,20,12z"/>
</svg>
